Coordinates
version=1
nRows=19
nColumns=36
inDegrees=yes

Units are S.I. units (second, meters, Newtons, ...)
If the header above contains a line with 'inDegrees', this indicates whether rotational values are in degrees (yes) or radians (no).

endheader
time	pelvis_tilt	pelvis_list	pelvis_rotation	pelvis_tx	pelvis_ty	pelvis_tz	hip_flexion_r	hip_adduction_r	hip_rotation_r	knee_angle_r	knee_angle_r_beta	ankle_angle_r	subtalar_angle_r	mtp_angle_r	hip_flexion_l	hip_adduction_l	hip_rotation_l	knee_angle_l	knee_angle_l_beta	ankle_angle_l	subtalar_angle_l	mtp_angle_l	lumbar_extension	lumbar_bending	lumbar_rotation	arm_flex_r	arm_add_r	arm_rot_r	elbow_flex_r	pro_sup_r	arm_flex_l	arm_add_l	arm_rot_l	elbow_flex_l	pro_sup_l
      0.00000000	      0.99008123	     -0.05417448	      2.02457008	     -0.07098420	      1.24627003	      0.27108615	     -0.17915144	      0.17322743	     -1.25588182	      5.85269576	      0.10214881	     10.43899313	     -5.90997162	     -7.19002972	     -0.68193613	     -0.69010452	     -2.28733848	      6.85301239	      0.11960763	     10.77929181	     -6.28338790	     -7.19002972	     -3.12819920	      0.61877157	      2.16773970	      0.95273082	     -8.03018708	      2.02567876	     15.80744924	     92.62686776	     -0.61540218	     -7.98887603	      0.96437487	     19.07719654	     92.39376767
      0.01666670	      0.82961086	     -0.12762756	      1.47131630	     -0.07095986	      1.24524346	      0.27020468	     -0.76105135	      0.39465137	     -1.87181083	      4.29403008	      0.07494496	     11.29543797	     -5.72947765	     -7.22753925	     -1.34999902	     -0.62625638	     -4.20511755	      4.90587217	      0.08562362	     11.19943037	     -5.44173291	     -7.22753925	     -1.67492841	      1.01100615	      2.56685840	      1.59252880	     -8.30074859	      3.12183501	     13.58681157	     94.33883430	     -1.07645048	     -7.61955159	      0.37372648	     17.29171267	     92.18355820
      0.03333330	      1.00930022	     -0.05073273	      1.10342994	     -0.07180857	      1.24370021	      0.27004192	     -1.11036225	      0.38264912	     -2.79402164	      4.40331997	      0.07685243	     11.47850992	     -5.32475412	     -7.29387450	     -1.34343840	     -0.42253026	     -6.31286844	      4.92450688	      0.08594886	     10.33403030	     -6.11549135	     -7.29387450	     -1.59377801	      1.12303092	      2.43242323	      2.04834829	     -8.66748334	      4.86482077	     12.88920554	     98.50520635	     -1.02838129	     -7.55856302	     -0.08866354	     16.75904898	     93.21887886
      0.05000000	      0.98722792	      0.12715978	      1.38064529	     -0.08922897	      1.24272675	      0.26985177	     -0.68771660	      0.25893699	     -4.31507248	      4.72617144	      0.08248725	     11.36263856	     -5.50482377	     -7.39279034	     -0.43640844	     -0.23580745	     -7.76209245	      5.67986228	      0.09913230	     10.24374931	     -5.72711933	     -7.39279034	     -1.98071371	      0.94210883	      2.11194671	      2.77419806	     -8.47579876	      3.48529855	     12.71692148	    101.59630716	     -0.34556917	     -7.45849642	     -2.12140777	     16.95530447	     95.46157933
      0.06666670	      1.18027690	      0.35223130	      1.45912732	     -0.08244658	      1.24357723	      0.26620387	     -0.59421741	      0.02474134	     -5.13333647	      5.17539436	      0.09032767	     11.43910336	     -5.86483552	     -7.39362797	     -0.22664510	      0.05027058	     -8.61272560	      6.08212843	      0.10615317	     10.01440174	     -5.86213426	     -7.39362797	     -2.38121773	      0.71725030	      2.16199368	      3.07863799	     -8.46629200	      3.54706572	     12.78567464	    101.62726764	     -0.00085300	     -7.36711951	     -2.14302591	     17.01396105	     95.47777331
      0.08333330	      1.03577512	      0.51411544	      1.47618164	     -0.08338417	      1.24364797	      0.26613413	     -0.13488325	     -0.18204746	     -5.85085957	      5.54825421	      0.09683530	     11.50344544	     -5.93926909	     -7.41250978	      0.20034917	      0.21225464	     -9.36901144	      6.35879478	      0.11098191	     10.09894764	     -5.31321370	     -7.41250978	     -2.31760404	      0.58758579	      2.24498414	      3.26185649	     -8.57041583	      5.15767464	     12.67098220	    101.40652926	      0.29681376	     -7.31721268	     -1.82314475	     16.74016784	     94.74720306
      0.10000000	      0.88639002	      0.62389683	      1.51528030	     -0.08343095	      1.24362751	      0.26614800	      0.25885691	     -0.32097599	     -6.29923648	      5.87107175	      0.10246953	     11.16007582	     -6.50369002	     -7.46153033	      0.52149716	      0.32164896	     -9.78627377	      6.52286548	      0.11384548	     10.00380297	     -5.29888443	     -7.46153033	     -2.18821291	      0.52203890	      2.10987704	      3.39386588	     -8.59310361	      6.13287105	     12.63881720	    101.73629136	      0.23566687	     -7.29443944	     -2.36044979	     16.89504416	     96.40563842
      0.11666670	      0.67060693	      0.72826020	      1.55694126	     -0.08375686	      1.24356740	      0.26614072	      0.68901942	     -0.46725773	     -6.72901915	      6.15379199	      0.10740393	     10.78764109	     -6.91748781	     -7.47680418	      0.80355613	      0.43653740	    -10.07664879	      6.55096582	      0.11433592	      9.85830370	     -5.24368620	     -7.47680418	     -1.90217331	      0.44377361	      2.02806905	      3.41375110	     -8.67720836	      8.38908918	     12.47326500	    100.00208639	      0.23070718	     -7.48131811	     -0.60281213	     16.76586136	     94.35313104
      0.13333330	      0.59248346	      0.81395386	      1.65932010	     -0.08303615	      1.24372405	      0.26623354	      0.92125348	     -0.58824702	     -6.97486051	      6.42480496	      0.11213400	     10.46638009	     -7.34266788	     -7.48084550	      0.82794526	      0.52553372	    -10.28507887	      6.44244039	      0.11244180	      9.49712154	     -5.44167412	     -7.48084550	     -1.91227345	      0.39779770	      2.00330166	      3.20640849	     -8.61278441	      8.50586373	     12.80970632	     97.16982938	      0.04687607	     -7.48836758	     -0.64261174	     17.31640428	     91.50186237
      0.15000000	      0.28363938	      0.85253097	      1.74600844	     -0.08261990	      1.24618099	      0.26602784	      1.39714958	     -0.64121900	     -7.00398284	      6.70806014	      0.11707774	     10.20716334	     -7.78819627	     -7.48320324	      1.19599463	      0.55805534	    -10.42642739	      6.46811188	      0.11288985	      9.36791654	     -5.44149081	     -7.48320324	     -1.43630110	      0.37893928	      1.89429025	      3.24485981	     -8.51705043	      9.05531175	     12.27655486	     96.93120105	      0.12400675	     -7.51948285	     -0.17776175	     16.71882077	     91.28622297
      0.16666670	      0.30187665	      0.86892421	      1.76670048	     -0.08928767	      1.24590479	      0.26934356	      1.42923152	     -0.61292861	     -7.01342185	      6.70155299	      0.11696416	     10.20355199	     -7.79051384	     -7.48320453	      1.21687700	      0.56528415	    -10.43517129	      6.45619735	      0.11268190	      9.36949466	     -5.44380473	     -7.48320453	     -1.43228551	      0.38633741	      1.89199946	      3.24048016	     -8.51678636	      9.05632861	     12.27706373	     96.93288955	      0.12556019	     -7.52025084	     -0.17697309	     16.72103712	     91.28787482
      0.18333330	      0.12452575	      0.87415046	      1.82494664	     -0.08191852	      1.24605120	      0.26608735	      1.70600021	     -0.60802923	     -7.36157756	      6.92115890	      0.12079701	      9.89523760	     -7.97962154	     -7.48327262	      1.39375986	      0.55558089	    -10.85500783	      6.40733375	      0.11182907	      9.08538188	     -5.47718973	     -7.48327262	     -1.31245421	      0.34538571	      1.87062985	      3.22863139	     -8.40311383	      9.12245130	     12.31631370	     97.03506921	      0.18565389	     -7.63934017	     -0.12815746	     16.76709812	     91.38923884
      0.20000000	     -0.74248023	      0.88668622	      1.81632543	     -0.08827401	      1.24101722	      0.26954868	      2.87000160	     -0.56601040	     -6.91418862	      7.30845922	      0.12755668	      9.48542196	     -9.00207833	     -7.48473848	      2.56447668	      0.53071740	    -11.01306497	      6.76461390	      0.11806479	      8.85287757	     -5.73744954	     -7.48473848	     -0.20745235	      0.27782547	      1.89345236	      3.14565916	     -8.38534536	     10.50239281	     11.94844072	     98.08000191	      0.08963450	     -7.86488158	      0.95411912	     16.66117120	     92.43787555
      0.21666670	     -0.76272466	      0.90330228	      1.83182158	     -0.08015170	      1.24472835	      0.27229658	      2.82907221	     -0.52147056	     -6.91663364	      7.32651213	      0.12787176	      9.48371354	     -9.00260064	     -7.48473957	      2.57475425	      0.53847135	    -11.02071675	      6.76896133	      0.11814066	      8.85093241	     -5.74149949	     -7.48473957	     -0.21268571	      0.27859988	      1.89498818	      3.15114587	     -8.38503456	     10.50250566	     11.95046831	     98.08084093	      0.09230450	     -7.86164845	      0.95448211	     16.66190125	     92.43892818
      0.23333330	     -0.77407779	      0.79933157	      1.79398785	     -0.07918318	      1.24723677	      0.27233877	      2.74779425	     -0.29553226	     -6.65841715	      7.34797427	      0.12824634	      9.41522585	     -9.29453665	     -7.48769810	      2.51495918	      0.34923812	    -11.50195994	      6.72017678	      0.11728921	      8.50760202	     -5.77904409	     -7.48769810	     -0.10883485	      0.23411966	      2.03995231	      2.95005148	     -8.32534055	     11.39531327	     12.14283512	     99.90985904	      0.01135391	     -8.06254731	      1.65748085	     16.61576512	     94.49475622
      0.25000000	     -0.90157833	      0.78663811	      1.73828029	     -0.07940504	      1.24692857	      0.27232660	      2.85157674	     -0.21870138	     -6.54969013	      7.30838712	      0.12755542	      9.38384460	     -9.47651175	     -7.49530936	      2.47185055	      0.33133514	    -11.59461655	      6.51228000	      0.11366073	      8.22195561	     -5.80415421	     -7.49530936	      0.02566377	      0.20467909	      2.10196218	      2.82180936	     -8.11308312	      9.57123575	     12.14091945	    101.74504258	     -0.17346892	     -8.02781431	     -0.18908562	     16.91043596	     97.48867347
      0.26666670	     -0.77980529	      0.77439890	      1.63844454	     -0.07955998	      1.24412378	      0.27257427	      2.59442973	     -0.13160157	     -6.55905540	      7.07738717	      0.12352371	      9.36936721	     -9.51413792	     -7.49644525	      2.13337105	      0.31086541	    -11.66565459	      6.22569543	      0.10865888	      7.95913484	     -5.91750196	     -7.49644525	     -0.18295998	      0.17001405	      2.24086949	      2.71712998	     -8.04540009	     10.11966168	     12.27705758	     97.75908219	     -0.24849010	     -8.02128600	     -0.12328640	     17.17404150	     93.73212865
      0.28333330	     -1.03895932	      0.75476263	      1.56217790	     -0.08012556	      1.24096039	      0.27277741	      2.86526900	     -0.06199433	     -6.44825182	      7.02500965	      0.12260955	      9.30803635	     -9.74112700	     -7.49674245	      2.31484949	      0.27348214	    -11.89411605	      6.11802890	      0.10677975	      7.92009432	     -5.77983712	     -7.49674245	      0.21709860	      0.16694974	      2.21890228	      2.87715616	     -7.96203358	     11.04652501	     11.61006741	     98.88977585	     -0.22166551	     -8.13934630	      0.71007931	     16.60427721	     94.50361918
      0.30000000	     -1.06626031	      0.74965630	      1.48580581	     -0.07972659	      1.24103608	      0.27280661	      2.88975992	     -0.01168257	     -6.46324386	      6.97179546	      0.12168079	      9.28164573	     -9.82545718	     -7.49687382	      2.22964935	      0.26243769	    -11.96530914	      5.94903727	      0.10383029	      7.90540697	     -5.70813833	     -7.49687382	      0.19242773	      0.13443636	      2.28520610	      2.76011930	     -7.98142648	     11.24939822	     11.92449177	    100.78710256	     -0.33445652	     -8.21976251	      0.95904614	     16.87161110	     96.13501833
